<svg xmlns="http://www.w3.org/2000/svg" xmlns:xlink="http://www.w3.org/1999/xlink" viewBox="0 0 48.89 37.25"><defs><style>.cls-1{isolation:isolate;}.cls-2{mix-blend-mode:multiply;opacity:0.6;fill:url(#radial-gradient);}.cls-3,.cls-4{fill:#fbca03;}.cls-3{fill-rule:evenodd;}.cls-4{font-size:12px;font-family:ComicSansMS-Bold, Comic Sans MS;font-weight:700;}</style><radialGradient id="radial-gradient" cx="46.94" cy="-370.08" r="35.53" gradientTransform="translate(13.12 43.4) scale(0.43 0.06)" gradientUnits="userSpaceOnUse"><stop offset="0"/><stop offset="0" stop-color="#020202"/><stop offset="0.08" stop-color="#373737"/><stop offset="0.16" stop-color="#656565"/><stop offset="0.25" stop-color="#8f8f8f"/><stop offset="0.34" stop-color="#b1b1b1"/><stop offset="0.44" stop-color="#cecece"/><stop offset="0.54" stop-color="#e4e4e4"/><stop offset="0.66" stop-color="#f3f3f3"/><stop offset="0.79" stop-color="#fcfcfc"/><stop offset="0.97" stop-color="#fff"/></radialGradient></defs><g class="cls-1"><g id="Layer_2" data-name="Layer 2"><g id="Layer_1-2" data-name="Layer 1"><path class="cls-2" d="M48.89,22.05c0,1.13-6.9,2-15.41,2s-15.42-.91-15.42-2S25,20,33.48,20,48.89,20.91,48.89,22.05Z"/><path class="cls-3" d="M31.28,21.51c7.66,2.72,8.54-8,5.08-11.92.61-1.71-.07-4.26-1.87-6.47C32.16.31,28.86-.81,27.13.62h0c-1.76,1.45-1.27,4.9,1,7.7,1.73,2.1,4,3.25,5.77,3.12A6.73,6.73,0,0,1,36,13.29c5.56,7.31-3,8.19-17.86-1.93C1-.39-1.77,7.42.86,13.29c1.61,1.58.35,4.54,2,6C4.69,21,7.34,23.16,10,22.9a37.08,37.08,0,0,1-6.05-4.82.42.42,0,0,1-.16-.23.79.79,0,0,1-.1-.33v-.07a.61.61,0,0,1,0-.3.51.51,0,0,1,.1-.3l1.76-3.34v0a.4.4,0,0,1,.1-.17,1.51,1.51,0,0,1,.17-.1.39.39,0,0,1,.25,0c.08,0,.16.09.28.18v0l7.45,6.78h0a.71.71,0,0,0,.34.16c0-2.16-4.63-6.11-6.59-7.89L6.25,11.37h0c-1.47-1.19-2.75,1.3-4.39-.1C-1.62,8.53,3,6.36,10.68,8.84c9.62,3.07,14.05,10.35,20.6,12.67Zm-25.69-5A.81.81,0,0,0,5,16.34H5a1,1,0,0,0-.56.27h0a.83.83,0,0,0-.21.58h0a.67.67,0,0,0,.22.53c9.15,6.77,9.34,6.89,1.11-1.19Zm1.06-2a.71.71,0,0,0-.56-.21h0a.71.71,0,0,0-.54.27h0a.83.83,0,0,0-.23.57.74.74,0,0,0,.25.54h0C16.1,24.49,15,23.18,6.65,14.54Z"/><text class="cls-4" transform="translate(2 33.61)">spoony</text></g></g></g></svg>